<?xml version="1.0" encoding="iso-8859-1"?>
<!-- Generator: Adobe Illustrator 19.0.0, SVG Export Plug-In . SVG Version: 6.00 Build 0)  -->
<svg version="1.1" id="Layer_1" xmlns="http://www.w3.org/2000/svg" xmlns:xlink="http://www.w3.org/1999/xlink" x="0px" y="0px"
	 viewBox="0 0 504.131 504.131" style="enable-background:new 0 0 504.131 504.131;" xml:space="preserve">
<path style="fill:#D64505;" d="M294.573,490.823h-85.055C93.987,490.823,0,396.82,0,281.281V13.308h146.842v267.973
	c0,34.572,28.121,62.708,62.677,62.708h85.063c34.58,0,62.716-28.136,62.716-62.708V13.308h146.826v267.973
	C504.123,396.82,410.104,490.823,294.573,490.823z"/>
<path style="fill:#B73400;" d="M357.289,135.558v145.723c0,34.572-28.136,62.708-62.716,62.708h-85.055
	c-34.556,0-62.677-28.136-62.677-62.708V135.558V13.308H0v122.25C0,251.097,93.987,345.1,209.518,345.1h85.063
	c115.531,0,209.55-94.003,209.55-209.542V13.308H357.289V135.558z"/>
<path style="fill:#09C0CE;" d="M253.259,343.989H209.51c-34.556,0-62.677-28.136-62.677-62.708V13.308H0v267.973
	C0,396.82,93.987,490.823,209.518,490.823h43.748V343.989H253.259z"/>
<path style="fill:#0793D1;" d="M209.518,345.1h43.748v-1.111h-43.748c-34.556,0-62.677-28.136-62.677-62.708V135.558V13.308H0
	v122.25C0,251.097,93.987,345.1,209.518,345.1z"/>
<rect y="13.308" style="fill:#CCE2E2;" width="146.842" height="74.65"/>
<polygon style="fill:#AFC8C9;" points="146.842,87.958 146.842,13.308 0,38.719 0,87.958 "/>
<rect y="38.908" style="fill:#86A8A7;" width="146.842" height="49.05"/>
<rect x="357.281" y="13.308" style="fill:#CCE2E2;" width="146.842" height="74.65"/>
<polygon style="fill:#AFC8C9;" points="504.123,87.958 504.123,13.308 357.281,38.719 357.281,87.958 "/>
<rect x="357.281" y="38.908" style="fill:#86A8A7;" width="146.842" height="49.05"/>
<g>
</g>
<g>
</g>
<g>
</g>
<g>
</g>
<g>
</g>
<g>
</g>
<g>
</g>
<g>
</g>
<g>
</g>
<g>
</g>
<g>
</g>
<g>
</g>
<g>
</g>
<g>
</g>
<g>
</g>
</svg>
