<?xml version="1.0" encoding="iso-8859-1"?>
<!-- Generator: Adobe Illustrator 19.0.0, SVG Export Plug-In . SVG Version: 6.00 Build 0)  -->
<svg version="1.1" id="Layer_1" xmlns="http://www.w3.org/2000/svg" xmlns:xlink="http://www.w3.org/1999/xlink" x="0px" y="0px"
	 viewBox="0 0 472 472" style="enable-background:new 0 0 472 472;" xml:space="preserve">
<path style="fill:#D8BA8F;" d="M472,441.6c0,16.8-13.6,30.4-30.4,30.4H30.4C13.6,472,0,458.4,0,441.6V30.4C0,13.6,13.6,0,30.4,0
	h410.4c16.8,0,30.4,13.6,30.4,30.4v411.2H472z"/>
<path style="fill:#C9A97F;" d="M0,30.4C0,13.6,13.6,0,30.4,0h410.4c16.8,0,30.4,13.6,30.4,30.4v410.4c0,16.8-13.6,30.4-30.4,30.4"/>
<rect x="174.4" y="4" style="fill:#BA966C;" width="123.2" height="149.6"/>
<rect x="174.4" style="fill:#E5D3AE;" width="123.2" height="149.6"/>
<g>
	<path style="fill:#BC224A;" d="M152,306.4h-20l0.8,0.8l-35.2,35.2h45.6L116,369.6h27.2l-52,52H152c4,0,8-3.2,8-8v-100
		C160,309.6,156.8,306.4,152,306.4z"/>
	<path style="fill:#BC224A;" d="M71.2,420.8l36-36H80l28-28H62.4l50.4-50.4H52c-4,0-7.2,3.2-7.2,8v100c0,4,3.2,8,7.2,8h20
		L71.2,420.8z"/>
</g>
<polyline style="fill:#E0CCA0;" points="174.4,149.6 297.6,149.6 297.6,0 "/>
<g>
	<path style="fill:#A80F3F;" d="M71.2,420.8l36-36H80l28-28h-6.4L44,413.6c0,4,3.2,8,7.2,8h20V420.8z"/>
	<path style="fill:#A80F3F;" d="M152,306.4l-36,36h27.2L116,369.6h27.2l-52,52H152c4,0,8-3.2,8-8v-100
		C160,309.6,156.8,306.4,152,306.4z"/>
</g>
<path style="fill:#A58967;" d="M413.6,348l-32.8-32.8c-6.4-6.4-16.8-6.4-23.2,0L324,348c-6.4,6.4-6.4,16.8,0,23.2
	c3.2,3.2,7.2,4.8,12,4.8c4,0,8.8-1.6,12-4.8l4.8-4.8v38.4c0,8.8,7.2,16.8,16.8,16.8c8.8,0,16.8-7.2,16.8-16.8v-38.4l4.8,4.8
	c6.4,6.4,16.8,6.4,23.2,0C420,364.8,420,354.4,413.6,348z"/>
<path style="fill:#967857;" d="M380.8,315.2c-6.4-6.4-16.8-6.4-23.2,0L324,348c-0.8,0.8-2.4,2.4-2.4,4l22.4,22.4
	c1.6-0.8,2.4-1.6,4-2.4l4.8-4.8v16l30.4,30.4c1.6-2.4,2.4-5.6,2.4-8.8v-38.4l4.8,4.8c6.4,6.4,16.8,6.4,23.2,0
	c6.4-6.4,6.4-16.8,0-23.2L380.8,315.2z"/>
<g>
</g>
<g>
</g>
<g>
</g>
<g>
</g>
<g>
</g>
<g>
</g>
<g>
</g>
<g>
</g>
<g>
</g>
<g>
</g>
<g>
</g>
<g>
</g>
<g>
</g>
<g>
</g>
<g>
</g>
</svg>
